<svg id="mermaid-svg" width="100%" xmlns="http://www.w3.org/2000/svg" class="flowchart" style="max-width: 951.1640625px;" viewBox="0 -49 951.1640625 1997.8863525390625" role="graphics-document document" aria-roledescription="flowchart-v2" xmlns:xlink="http://www.w3.org/1999/xlink"><style xmlns="http://www.w3.org/1999/xhtml">@import url("https://cdnjs.cloudflare.com/ajax/libs/font-awesome/6.7.2/css/all.min.css");</style><style>#mermaid-svg{font-size:14px;fill:#ccc;}@keyframes edge-animation-frame{from{stroke-dashoffset:0;}}@keyframes dash{to{stroke-dashoffset:0;}}#mermaid-svg .edge-animation-slow{stroke-dasharray:9,5!important;stroke-dashoffset:900;animation:dash 50s linear infinite;stroke-linecap:round;}#mermaid-svg .edge-animation-fast{stroke-dasharray:9,5!important;stroke-dashoffset:900;animation:dash 20s linear infinite;stroke-linecap:round;}#mermaid-svg .error-icon{fill:#a44141;}#mermaid-svg .error-text{fill:#ddd;stroke:#ddd;}#mermaid-svg .edge-thickness-normal{stroke-width:1px;}#mermaid-svg .edge-thickness-thick{stroke-width:3.5px;}#mermaid-svg .edge-pattern-solid{stroke-dasharray:0;}#mermaid-svg .edge-thickness-invisible{stroke-width:0;fill:none;}#mermaid-svg .edge-pattern-dashed{stroke-dasharray:3;}#mermaid-svg .edge-pattern-dotted{stroke-dasharray:2;}#mermaid-svg .marker{fill:#8b93a5;stroke:#8b93a5;}#mermaid-svg .marker.cross{stroke:#8b93a5;}#mermaid-svg svg{font-size:14px;}#mermaid-svg p{margin:0;}#mermaid-svg .label{color:#ccc;}#mermaid-svg .cluster-label text{fill:#F9FFFE;}#mermaid-svg .cluster-label span{color:#F9FFFE;}#mermaid-svg .cluster-label span p{background-color:transparent;}#mermaid-svg .label text,#mermaid-svg span{fill:#ccc;color:#ccc;}#mermaid-svg .node rect,#mermaid-svg .node circle,#mermaid-svg .node ellipse,#mermaid-svg .node polygon,#mermaid-svg .node path{fill:#1f2020;stroke:#ccc;stroke-width:1px;}#mermaid-svg .rough-node .label text,#mermaid-svg .node .label text,#mermaid-svg .image-shape .label,#mermaid-svg .icon-shape .label{text-anchor:middle;}#mermaid-svg .node .katex path{fill:#000;stroke:#000;stroke-width:1px;}#mermaid-svg .rough-node .label,#mermaid-svg .node .label,#mermaid-svg .image-shape .label,#mermaid-svg .icon-shape .label{text-align:center;}#mermaid-svg .node.clickable{cursor:pointer;}#mermaid-svg .root .anchor path{fill:#8b93a5!important;stroke-width:0;stroke:#8b93a5;}#mermaid-svg .arrowheadPath{fill:lightgrey;}#mermaid-svg .edgePath .path{stroke:#8b93a5;stroke-width:2.0px;}#mermaid-svg .flowchart-link{stroke:#8b93a5;fill:none;}#mermaid-svg .edgeLabel{background-color:hsl(0, 0%, 34.4117647059%);text-align:center;}#mermaid-svg .edgeLabel p{background-color:hsl(0, 0%, 34.4117647059%);}#mermaid-svg .edgeLabel rect{opacity:0.5;background-color:hsl(0, 0%, 34.4117647059%);fill:hsl(0, 0%, 34.4117647059%);}#mermaid-svg .labelBkg{background-color:rgba(87.75, 87.75, 87.75, 0.5);}#mermaid-svg .cluster rect{fill:hsl(180, 1.5873015873%, 28.3529411765%);stroke:rgba(255, 255, 255, 0.25);stroke-width:1px;}#mermaid-svg .cluster text{fill:#F9FFFE;}#mermaid-svg .cluster span{color:#F9FFFE;}#mermaid-svg div.mermaidTooltip{position:absolute;text-align:center;max-width:200px;padding:2px;font-size:12px;background:#181b22;border:1px solid rgba(255, 255, 255, 0.25);border-radius:2px;pointer-events:none;z-index:100;}#mermaid-svg .flowchartTitleText{text-anchor:middle;font-size:18px;fill:#ccc;}#mermaid-svg rect.text{fill:none;stroke-width:0;}#mermaid-svg .icon-shape,#mermaid-svg .image-shape{background-color:hsl(0, 0%, 34.4117647059%);text-align:center;}#mermaid-svg .icon-shape p,#mermaid-svg .image-shape p{background-color:hsl(0, 0%, 34.4117647059%);padding:2px;}#mermaid-svg .icon-shape rect,#mermaid-svg .image-shape rect{opacity:0.5;background-color:hsl(0, 0%, 34.4117647059%);fill:hsl(0, 0%, 34.4117647059%);}#mermaid-svg .label-icon{display:inline-block;height:1em;overflow:visible;vertical-align:-0.125em;}#mermaid-svg .node .label-icon path{fill:currentColor;stroke:revert;stroke-width:revert;}#mermaid-svg :root{--mermaid-font-family:"trebuchet ms",verdana,arial,sans-serif;}</style><g><marker id="mermaid-svg_flowchart-v2-pointEnd" class="marker flowchart-v2" viewBox="0 0 10 10" refX="5" refY="5" markerUnits="userSpaceOnUse" markerWidth="8" markerHeight="8" orient="auto"><path d="M 0 0 L 10 5 L 0 10 z" class="arrowMarkerPath" style="stroke-width: 1; stroke-dasharray: 1, 0;"/></marker><marker id="mermaid-svg_flowchart-v2-pointStart" class="marker flowchart-v2" viewBox="0 0 10 10" refX="4.5" refY="5" markerUnits="userSpaceOnUse" markerWidth="8" markerHeight="8" orient="auto"><path d="M 0 5 L 10 10 L 10 0 z" class="arrowMarkerPath" style="stroke-width: 1; stroke-dasharray: 1, 0;"/></marker><marker id="mermaid-svg_flowchart-v2-circleEnd" class="marker flowchart-v2" viewBox="0 0 10 10" refX="11" refY="5" markerUnits="userSpaceOnUse" markerWidth="11" markerHeight="11" orient="auto"><circle cx="5" cy="5" r="5" class="arrowMarkerPath" style="stroke-width: 1; stroke-dasharray: 1, 0;"/></marker><marker id="mermaid-svg_flowchart-v2-circleStart" class="marker flowchart-v2" viewBox="0 0 10 10" refX="-1" refY="5" markerUnits="userSpaceOnUse" markerWidth="11" markerHeight="11" orient="auto"><circle cx="5" cy="5" r="5" class="arrowMarkerPath" style="stroke-width: 1; stroke-dasharray: 1, 0;"/></marker><marker id="mermaid-svg_flowchart-v2-crossEnd" class="marker cross flowchart-v2" viewBox="0 0 11 11" refX="12" refY="5.2" markerUnits="userSpaceOnUse" markerWidth="11" markerHeight="11" orient="auto"><path d="M 1,1 l 9,9 M 10,1 l -9,9" class="arrowMarkerPath" style="stroke-width: 2; stroke-dasharray: 1, 0;"/></marker><marker id="mermaid-svg_flowchart-v2-crossStart" class="marker cross flowchart-v2" viewBox="0 0 11 11" refX="-1" refY="5.2" markerUnits="userSpaceOnUse" markerWidth="11" markerHeight="11" orient="auto"><path d="M 1,1 l 9,9 M 10,1 l -9,9" class="arrowMarkerPath" style="stroke-width: 2; stroke-dasharray: 1, 0;"/></marker><g class="root"><g class="clusters"><g class="cluster " id="IN" data-look="classic"><rect style="fill:#1a2332 !important;stroke:#4ea1ff !important" x="47.94140625" y="406" width="436.640625" height="122"/><g class="cluster-label " transform="translate(226.16015625, 406)"><foreignObject width="80.203125" height="21"><div xmlns="http://www.w3.org/1999/xhtml" style="display: table-cell; white-space: nowrap; line-height: 1.5; max-width: 200px; text-align: center;"><span class="nodeLabel " style="color:#e4e7ee !important"><p>① Task intake</p></span></div></foreignObject></g></g></g><g class="edgePaths"><path d="M163.887,503L163.887,507.167C163.887,511.333,163.887,519.667,163.887,528C163.887,536.333,163.887,544.667,173.735,555.311C183.584,565.955,203.281,578.911,213.13,585.389L222.978,591.866" id="L_S1_Q_0" class=" edge-thickness-thick edge-pattern-solid edge-thickness-normal edge-pattern-solid flowchart-link" style=";" data-edge="true" data-et="edge" data-id="L_S1_Q_0" data-points="W3sieCI6MTYzLjg4NjcxODc1LCJ5Ijo1MDN9LHsieCI6MTYzLjg4NjcxODc1LCJ5Ijo1Mjh9LHsieCI6MTYzLjg4NjcxODc1LCJ5Ijo1NTN9LHsieCI6MjI2LjMyMDMxMjUsInkiOjU5NC4wNjQ1NzcxNzAxMTM5fV0=" marker-end="url(#mermaid-svg_flowchart-v2-pointEnd)"/><path d="M372.207,503L372.207,507.167C372.207,511.333,372.207,519.667,372.207,528C372.207,536.333,372.207,544.667,362.358,555.311C352.51,565.955,332.813,578.911,322.964,585.389L313.115,591.866" id="L_S2_Q_0" class=" edge-thickness-thick edge-pattern-solid edge-thickness-normal edge-pattern-solid flowchart-link" style=";" data-edge="true" data-et="edge" data-id="L_S2_Q_0" data-points="W3sieCI6MzcyLjIwNzAzMTI1LCJ5Ijo1MDN9LHsieCI6MzcyLjIwNzAzMTI1LCJ5Ijo1Mjh9LHsieCI6MzcyLjIwNzAzMTI1LCJ5Ijo1NTN9LHsieCI6MzA5Ljc3MzQzNzUsInkiOjU5NC4wNjQ1NzcxNzAxMTM5fV0=" marker-end="url(#mermaid-svg_flowchart-v2-pointEnd)"/><path d="M268.047,665.019L268.047,669.186C268.047,673.352,268.047,681.686,268.047,689.352C268.047,697.019,268.047,704.019,268.047,707.519L268.047,711.019" id="L_Q_GATHER_0" class=" edge-thickness-thick edge-pattern-solid edge-thickness-normal edge-pattern-solid flowchart-link" style=";" data-edge="true" data-et="edge" data-id="L_Q_GATHER_0" data-points="W3sieCI6MjY4LjA0Njg3NSwieSI6NjY1LjAxODk1MTQxNjAxNTZ9LHsieCI6MjY4LjA0Njg3NSwieSI6NjkwLjAxODk1MTQxNjAxNTZ9LHsieCI6MjY4LjA0Njg3NSwieSI6NzE1LjAxODk1MTQxNjAxNTZ9XQ==" marker-end="url(#mermaid-svg_flowchart-v2-pointEnd)"/><path d="M323.805,899.019L328.451,906.686C333.098,914.352,342.391,929.686,358.231,950.958C374.071,972.231,396.459,999.442,407.652,1013.048L418.846,1026.654" id="L_GATHER_GEN_0" class=" edge-thickness-thick edge-pattern-solid edge-thickness-normal edge-pattern-solid flowchart-link" style=";" data-edge="true" data-et="edge" data-id="L_GATHER_GEN_0" data-points="W3sieCI6MzIzLjgwNDY4NzUsInkiOjg5OS4wMTg5NTE0MTYwMTU2fSx7IngiOjM1MS42ODM1OTM3NSwieSI6OTQ1LjAxODk1MTQxNjAxNTZ9LHsieCI6NDIxLjM4NzM3MTA2MzIzMjQsInkiOjEwMjkuNzQyNzUyMjk3MzI5fV0=" marker-end="url(#mermaid-svg_flowchart-v2-pointEnd)"/><path d="M542.982,1390.019L542.572,1397.686C542.162,1405.352,541.341,1420.686,544.921,1435.438C548.502,1450.191,556.483,1464.362,560.474,1471.448L564.465,1478.534" id="L_GEN_QC_0" class=" edge-thickness-thick edge-pattern-solid edge-thickness-normal edge-pattern-solid flowchart-link" style=";" data-edge="true" data-et="edge" data-id="L_GEN_QC_0" data-points="W3sieCI6NTQyLjk4MjM3ODA2NDI1MDcsInkiOjEzOTAuMDE4OTUxNDE2MDE1Nn0seyJ4Ijo1NDAuNTIwMTgzNTYzMjMyNCwieSI6MTQzNi4wMTg5NTE0MTYwMTU2fSx7IngiOjU2Ni40Mjc4NTQwMTc3Nzc5LCJ5IjoxNDgyLjAxODk1MTQxNjAxNTZ9XQ==" marker-end="url(#mermaid-svg_flowchart-v2-pointEnd)"/><path d="M674.984,1482.019L678.785,1474.352C682.587,1466.686,690.19,1451.352,689.828,1436.594C689.466,1421.835,681.139,1407.652,676.976,1400.56L672.812,1393.468" id="L_QC_GEN_0" class=" edge-thickness-normal edge-pattern-dotted edge-thickness-normal edge-pattern-solid flowchart-link" style=";" data-edge="true" data-et="edge" data-id="L_QC_GEN_0" data-points="W3sieCI6Njc0Ljk4MzU5MzcwNjMzMDEsInkiOjE0ODIuMDE4OTUxNDE2MDE1Nn0seyJ4Ijo2OTcuNzkzNjIxMDYzMjMyNCwieSI6MTQzNi4wMTg5NTE0MTYwMTU2fSx7IngiOjY3MC43ODcwNjU1NjQyNTA3LCJ5IjoxMzkwLjAxODk1MTQxNjAxNTZ9XQ==" marker-end="url(#mermaid-svg_flowchart-v2-pointEnd)"/><path d="M774.469,1482.019L785.712,1474.352C796.955,1466.686,819.441,1451.352,830.684,1402.769C841.926,1354.186,841.926,1272.352,841.926,1190.519C841.926,1108.686,841.926,1026.852,841.926,962.936C841.926,899.019,841.926,853.019,841.926,810.519C841.926,768.019,841.926,729.019,841.926,698.101C841.926,667.182,841.926,644.346,841.926,621.509C841.926,598.673,841.926,575.836,841.926,560.252C841.926,544.667,841.926,536.333,841.926,522C841.926,507.667,841.926,487.333,841.926,467C841.926,446.667,841.926,426.333,841.926,410.25C841.926,394.167,841.926,382.333,841.926,362.75C841.926,343.167,841.926,315.833,841.926,290.25C841.926,264.667,841.926,240.833,837.176,225.163C832.425,209.493,822.923,201.986,818.173,198.233L813.422,194.48" id="L_QC_PUB_0" class=" edge-thickness-thick edge-pattern-solid edge-thickness-normal edge-pattern-solid flowchart-link" style=";" data-edge="true" data-et="edge" data-id="L_QC_PUB_0" data-points="W3sieCI6Nzc0LjQ2OTIwNTAyNzg3ODgsInkiOjE0ODIuMDE4OTUxNDE2MDE1Nn0seyJ4Ijo4NDEuOTI2NDMzNTYzMjMyNCwieSI6MTQzNi4wMTg5NTE0MTYwMTU2fSx7IngiOjg0MS45MjY0MzM1NjMyMzI0LCJ5IjoxMTkwLjUxODk1MTQxNjAxNTZ9LHsieCI6ODQxLjkyNjQzMzU2MzIzMjQsInkiOjk0NS4wMTg5NTE0MTYwMTU2fSx7IngiOjg0MS45MjY0MzM1NjMyMzI0LCJ5Ijo4MDcuMDE4OTUxNDE2MDE1Nn0seyJ4Ijo4NDEuOTI2NDMzNTYzMjMyNCwieSI6NjkwLjAxODk1MTQxNjAxNTZ9LHsieCI6ODQxLjkyNjQzMzU2MzIzMjQsInkiOjYyMS41MDk0NzU3MDgwMDc4fSx7IngiOjg0MS45MjY0MzM1NjMyMzI0LCJ5Ijo1NTN9LHsieCI6ODQxLjkyNjQzMzU2MzIzMjQsInkiOjUyOH0seyJ4Ijo4NDEuOTI2NDMzNTYzMjMyNCwieSI6NDY3fSx7IngiOjg0MS45MjY0MzM1NjMyMzI0LCJ5Ijo0MDZ9LHsieCI6ODQxLjkyNjQzMzU2MzIzMjQsInkiOjM3MC41fSx7IngiOjg0MS45MjY0MzM1NjMyMzI0LCJ5IjoyODguNX0seyJ4Ijo4NDEuOTI2NDMzNTYzMjMyNCwieSI6MjE3fSx7IngiOjgxMC4yODMxNjUxNzM2NTI4LCJ5IjoxOTJ9XQ==" marker-end="url(#mermaid-svg_flowchart-v2-pointEnd)"/><path d="M444.508,155.046L397.738,165.371C350.967,175.697,257.427,196.349,210.657,210.174C163.887,224,163.887,231,163.887,234.5L163.887,238" id="L_PUB_STATUS_0" class=" edge-thickness-thick edge-pattern-solid edge-thickness-normal edge-pattern-solid flowchart-link" style=";" data-edge="true" data-et="edge" data-id="L_PUB_STATUS_0" data-points="W3sieCI6NDQ0LjUwNzgxMjUsInkiOjE1NS4wNDU2MzM3OTQ1MTE1Nn0seyJ4IjoxNjMuODg2NzE4NzUsInkiOjIxN30seyJ4IjoxNjMuODg2NzE4NzUsInkiOjI0Mn1d" marker-end="url(#mermaid-svg_flowchart-v2-pointEnd)"/><path d="M163.887,335L163.887,340.917C163.887,346.833,163.887,358.667,163.887,369.833C163.887,381,163.887,391.5,163.887,396.75L163.887,402" id="L_STATUS_IN_0" class=" edge-thickness-normal edge-pattern-dotted edge-thickness-normal edge-pattern-solid flowchart-link" style=";" data-edge="true" data-et="edge" data-id="L_STATUS_IN_0" data-points="W3sieCI6MTYzLjg4NjcxODc1LCJ5IjozMzV9LHsieCI6MTYzLjg4NjcxODc1LCJ5IjozNzAuNX0seyJ4IjoxNjMuODg2NzE4NzUsInkiOjQwNn0seyJ4IjoxNjMuODg2NzE4NzUsInkiOjQzMX1d" marker-end="url(#mermaid-svg_flowchart-v2-pointEnd)"/><path d="M693.836,192L693.836,196.167C693.836,200.333,693.836,208.667,693.836,224.75C693.836,240.833,693.836,264.667,693.836,290.25C693.836,315.833,693.836,343.167,693.836,362.75C693.836,382.333,693.836,394.167,693.836,410.25C693.836,426.333,693.836,446.667,693.836,467C693.836,487.333,693.836,507.667,693.836,522C693.836,536.333,693.836,544.667,693.836,560.252C693.836,575.836,693.836,598.673,693.836,621.509C693.836,644.346,693.836,667.182,693.836,689.184C693.836,711.186,693.836,732.352,693.836,742.936L693.836,753.519" id="L_PUB_EDITOR_0" class=" edge-thickness-normal edge-pattern-solid edge-thickness-normal edge-pattern-solid flowchart-link" style=";" data-edge="true" data-et="edge" data-id="L_PUB_EDITOR_0" data-points="W3sieCI6NjkzLjgzNTkzNzUsInkiOjE5Mn0seyJ4Ijo2OTMuODM1OTM3NSwieSI6MjE3fSx7IngiOjY5My44MzU5Mzc1LCJ5IjoyODguNX0seyJ4Ijo2OTMuODM1OTM3NSwieSI6MzcwLjV9LHsieCI6NjkzLjgzNTkzNzUsInkiOjQwNn0seyJ4Ijo2OTMuODM1OTM3NSwieSI6NDY3fSx7IngiOjY5My44MzU5Mzc1LCJ5Ijo1Mjh9LHsieCI6NjkzLjgzNTkzNzUsInkiOjU1M30seyJ4Ijo2OTMuODM1OTM3NSwieSI6NjIxLjUwOTQ3NTcwODAwNzh9LHsieCI6NjkzLjgzNTkzNzUsInkiOjY5MC4wMTg5NTE0MTYwMTU2fSx7IngiOjY5My44MzU5Mzc1LCJ5Ijo3NTcuNTE4OTUxNDE2MDE1Nn1d" marker-end="url(#mermaid-svg_flowchart-v2-pointEnd)"/><path d="M693.836,856.519L693.836,871.269C693.836,886.019,693.836,915.519,689.789,937.357C685.742,959.194,677.648,973.37,673.601,980.458L669.554,987.545" id="L_EDITOR_GEN_0" class=" edge-thickness-normal edge-pattern-dotted edge-thickness-normal edge-pattern-solid flowchart-link" style=";" data-edge="true" data-et="edge" data-id="L_EDITOR_GEN_0" data-points="W3sieCI6NjkzLjgzNTkzNzUsInkiOjg1Ni41MTg5NTE0MTYwMTU2fSx7IngiOjY5My44MzU5Mzc1LCJ5Ijo5NDUuMDE4OTUxNDE2MDE1Nn0seyJ4Ijo2NjcuNTcwOTQzODkwNjY2NywieSI6OTkxLjAxODk1MTQxNjAxNTZ9XQ==" marker-end="url(#mermaid-svg_flowchart-v2-pointEnd)"/><path d="M261.38,899.019L260.825,906.686C260.269,914.352,259.158,929.686,258.602,978.269C258.047,1026.852,258.047,1108.686,258.047,1190.519C258.047,1272.352,258.047,1354.186,258.047,1419.852C258.047,1485.519,258.047,1535.019,258.047,1581.019C258.047,1627.019,258.047,1669.519,294.153,1706.273C330.259,1743.026,402.472,1774.034,438.578,1789.537L474.684,1805.041" id="L_GATHER_STORE_0" class=" edge-thickness-normal edge-pattern-dotted edge-thickness-normal edge-pattern-solid flowchart-link" style=";" data-edge="true" data-et="edge" data-id="L_GATHER_STORE_0" data-points="W3sieCI6MjYxLjM4MDIwODMzMzMzMzMsInkiOjg5OS4wMTg5NTE0MTYwMTU2fSx7IngiOjI1OC4wNDY4NzUsInkiOjk0NS4wMTg5NTE0MTYwMTU2fSx7IngiOjI1OC4wNDY4NzUsInkiOjExOTAuNTE4OTUxNDE2MDE1Nn0seyJ4IjoyNTguMDQ2ODc1LCJ5IjoxNDM2LjAxODk1MTQxNjAxNTZ9LHsieCI6MjU4LjA0Njg3NSwieSI6MTU4NC41MTg5NTE0MTYwMTU2fSx7IngiOjI1OC4wNDY4NzUsInkiOjE3MTIuMDE4OTUxNDE2MDE1Nn0seyJ4Ijo0NzQuNjg0MjQ2MDYzMjMyNCwieSI6MTgwNS4wNDA4NTc2ODM1MzY2fV0="/><path d="M421.387,1308.34L397.497,1329.62C373.607,1350.9,325.827,1393.459,301.937,1439.489C278.047,1485.519,278.047,1535.019,278.047,1581.019C278.047,1627.019,278.047,1669.519,310.82,1705.862C343.593,1742.206,409.138,1772.393,441.911,1787.487L474.684,1802.58" id="L_GEN_STORE_0" class=" edge-thickness-normal edge-pattern-dotted edge-thickness-normal edge-pattern-solid flowchart-link" style=";" data-edge="true" data-et="edge" data-id="L_GEN_STORE_0" data-points="W3sieCI6NDIxLjM4NzM3MTA2MzIzMjQsInkiOjEzMDguMzQwMDIyNjc0NzM2N30seyJ4IjoyNzguMDQ2ODc1LCJ5IjoxNDM2LjAxODk1MTQxNjAxNTZ9LHsieCI6Mjc4LjA0Njg3NSwieSI6MTU4NC41MTg5NTE0MTYwMTU2fSx7IngiOjI3OC4wNDY4NzUsInkiOjE3MTIuMDE4OTUxNDE2MDE1Nn0seyJ4Ijo0NzQuNjg0MjQ2MDYzMjMyNCwieSI6MTgwMi41ODAwNDI5ODg4Nzg5fV0="/><path d="M624.157,1687.019L624.157,1691.186C624.157,1695.352,624.157,1703.686,621.843,1712.019C619.529,1720.352,614.901,1728.686,612.587,1732.852L610.272,1737.019" id="L_QC_STORE_0" class=" edge-thickness-normal edge-pattern-dotted edge-thickness-normal edge-pattern-solid flowchart-link" style=";" data-edge="true" data-et="edge" data-id="L_QC_STORE_0" data-points="W3sieCI6NjI0LjE1NjkwMjMxMzIzMjQsInkiOjE2ODcuMDE4OTUxNDE2MDE1Nn0seyJ4Ijo2MjQuMTU2OTAyMzEzMjMyNCwieSI6MTcxMi4wMTg5NTE0MTYwMTU2fSx7IngiOjYxMC4yNzI0NjQzOTQzNjE4LCJ5IjoxNzM3LjAxODk1MTQxNjAxNTZ9XQ=="/><path d="M865.716,192L873.5,196.167C881.285,200.333,896.854,208.667,904.638,224.75C912.423,240.833,912.423,264.667,912.423,290.25C912.423,315.833,912.423,343.167,912.423,362.75C912.423,382.333,912.423,394.167,912.423,410.25C912.423,426.333,912.423,446.667,912.423,467C912.423,487.333,912.423,507.667,912.423,522C912.423,536.333,912.423,544.667,912.423,560.252C912.423,575.836,912.423,598.673,912.423,621.509C912.423,644.346,912.423,667.182,912.423,698.101C912.423,729.019,912.423,768.019,912.423,810.519C912.423,853.019,912.423,899.019,912.423,962.936C912.423,1026.852,912.423,1108.686,912.423,1190.519C912.423,1272.352,912.423,1354.186,912.423,1419.852C912.423,1485.519,912.423,1535.019,912.423,1581.019C912.423,1627.019,912.423,1669.519,865.792,1707.267C819.161,1745.016,725.899,1778.013,679.268,1794.511L632.637,1811.01" id="L_PUB_STORE_0" class=" edge-thickness-normal edge-pattern-dotted edge-thickness-normal edge-pattern-solid flowchart-link" style=";" data-edge="true" data-et="edge" data-id="L_PUB_STORE_0" data-points="W3sieCI6ODY1LjcxNTk5MTAyODM1MzgsInkiOjE5Mn0seyJ4Ijo5MTIuNDIyNTI3MzEzMjMyNCwieSI6MjE3fSx7IngiOjkxMi40MjI1MjczMTMyMzI0LCJ5IjoyODguNX0seyJ4Ijo5MTIuNDIyNTI3MzEzMjMyNCwieSI6MzcwLjV9LHsieCI6OTEyLjQyMjUyNzMxMzIzMjQsInkiOjQwNn0seyJ4Ijo5MTIuNDIyNTI3MzEzMjMyNCwieSI6NDY3fSx7IngiOjkxMi40MjI1MjczMTMyMzI0LCJ5Ijo1Mjh9LHsieCI6OTEyLjQyMjUyNzMxMzIzMjQsInkiOjU1M30seyJ4Ijo5MTIuNDIyNTI3MzEzMjMyNCwieSI6NjIxLjUwOTQ3NTcwODAwNzh9LHsieCI6OTEyLjQyMjUyNzMxMzIzMjQsInkiOjY5MC4wMTg5NTE0MTYwMTU2fSx7IngiOjkxMi40MjI1MjczMTMyMzI0LCJ5Ijo4MDcuMDE4OTUxNDE2MDE1Nn0seyJ4Ijo5MTIuNDIyNTI3MzEzMjMyNCwieSI6OTQ1LjAxODk1MTQxNjAxNTZ9LHsieCI6OTEyLjQyMjUyNzMxMzIzMjQsInkiOjExOTAuNTE4OTUxNDE2MDE1Nn0seyJ4Ijo5MTIuNDIyNTI3MzEzMjMyNCwieSI6MTQzNi4wMTg5NTE0MTYwMTU2fSx7IngiOjkxMi40MjI1MjczMTMyMzI0LCJ5IjoxNTg0LjUxODk1MTQxNjAxNTZ9LHsieCI6OTEyLjQyMjUyNzMxMzIzMjQsInkiOjE3MTIuMDE4OTUxNDE2MDE1Nn0seyJ4Ijo2MzIuNjM3MzcxMDYzMjMyNCwieSI6MTgxMS4wMDk4NjUwMTM0NzQ2fV0="/></g><g class="edgeLabels"><g class="edgeLabel"><g class="label" data-id="L_S1_Q_0" transform="translate(0, 0)"><foreignObject width="0" height="0"><div xmlns="http://www.w3.org/1999/xhtml" class="labelBkg" style="display: table-cell; white-space: nowrap; line-height: 1.5; max-width: 200px; text-align: center;"><span class="edgeLabel "></span></div></foreignObject></g></g><g class="edgeLabel"><g class="label" data-id="L_S2_Q_0" transform="translate(0, 0)"><foreignObject width="0" height="0"><div xmlns="http://www.w3.org/1999/xhtml" class="labelBkg" style="display: table-cell; white-space: nowrap; line-height: 1.5; max-width: 200px; text-align: center;"><span class="edgeLabel "></span></div></foreignObject></g></g><g class="edgeLabel"><g class="label" data-id="L_Q_GATHER_0" transform="translate(0, 0)"><foreignObject width="0" height="0"><div xmlns="http://www.w3.org/1999/xhtml" class="labelBkg" style="display: table-cell; white-space: nowrap; line-height: 1.5; max-width: 200px; text-align: center;"><span class="edgeLabel "></span></div></foreignObject></g></g><g class="edgeLabel"><g class="label" data-id="L_GATHER_GEN_0" transform="translate(0, 0)"><foreignObject width="0" height="0"><div xmlns="http://www.w3.org/1999/xhtml" class="labelBkg" style="display: table-cell; white-space: nowrap; line-height: 1.5; max-width: 200px; text-align: center;"><span class="edgeLabel "></span></div></foreignObject></g></g><g class="edgeLabel"><g class="label" data-id="L_GEN_QC_0" transform="translate(0, 0)"><foreignObject width="0" height="0"><div xmlns="http://www.w3.org/1999/xhtml" class="labelBkg" style="display: table-cell; white-space: nowrap; line-height: 1.5; max-width: 200px; text-align: center;"><span class="edgeLabel "></span></div></foreignObject></g></g><g class="edgeLabel" transform="translate(697.2881, 1435.15789)"><g class="label" data-id="L_QC_GEN_0" transform="translate(-37.8984375, -21)"><foreignObject width="75.796875" height="42"><div xmlns="http://www.w3.org/1999/xhtml" class="labelBkg" style="display: table-cell; white-space: nowrap; line-height: 1.5; max-width: 200px; text-align: center;"><span class="edgeLabel "><p>rejected<br />→ regenerate</p></span></div></foreignObject></g></g><g class="edgeLabel"><g class="label" data-id="L_QC_PUB_0" transform="translate(0, 0)"><foreignObject width="0" height="0"><div xmlns="http://www.w3.org/1999/xhtml" class="labelBkg" style="display: table-cell; white-space: nowrap; line-height: 1.5; max-width: 200px; text-align: center;"><span class="edgeLabel "></span></div></foreignObject></g></g><g class="edgeLabel"><g class="label" data-id="L_PUB_STATUS_0" transform="translate(0, 0)"><foreignObject width="0" height="0"><div xmlns="http://www.w3.org/1999/xhtml" class="labelBkg" style="display: table-cell; white-space: nowrap; line-height: 1.5; max-width: 200px; text-align: center;"><span class="edgeLabel "></span></div></foreignObject></g></g><g class="edgeLabel" transform="translate(163.88671875, 370.5)"><g class="label" data-id="L_STATUS_IN_0" transform="translate(-27.6015625, -10.5)"><foreignObject width="55.203125" height="21"><div xmlns="http://www.w3.org/1999/xhtml" class="labelBkg" style="display: table-cell; white-space: nowrap; line-height: 1.5; max-width: 200px; text-align: center;"><span class="edgeLabel "><p>writeback</p></span></div></foreignObject></g></g><g class="edgeLabel"><g class="label" data-id="L_PUB_EDITOR_0" transform="translate(0, 0)"><foreignObject width="0" height="0"><div xmlns="http://www.w3.org/1999/xhtml" class="labelBkg" style="display: table-cell; white-space: nowrap; line-height: 1.5; max-width: 200px; text-align: center;"><span class="edgeLabel "></span></div></foreignObject></g></g><g class="edgeLabel" transform="translate(693.8359375, 945.0189514160156)"><g class="label" data-id="L_EDITOR_GEN_0" transform="translate(-32.65625, -21)"><foreignObject width="65.3125" height="42"><div xmlns="http://www.w3.org/1999/xhtml" class="labelBkg" style="display: table-cell; white-space: nowrap; line-height: 1.5; max-width: 200px; text-align: center;"><span class="edgeLabel "><p>one block<br />or text slice</p></span></div></foreignObject></g></g><g class="edgeLabel"><g class="label" data-id="L_GATHER_STORE_0" transform="translate(0, 0)"><foreignObject width="0" height="0"><div xmlns="http://www.w3.org/1999/xhtml" class="labelBkg" style="display: table-cell; white-space: nowrap; line-height: 1.5; max-width: 200px; text-align: center;"><span class="edgeLabel "></span></div></foreignObject></g></g><g class="edgeLabel"><g class="label" data-id="L_GEN_STORE_0" transform="translate(0, 0)"><foreignObject width="0" height="0"><div xmlns="http://www.w3.org/1999/xhtml" class="labelBkg" style="display: table-cell; white-space: nowrap; line-height: 1.5; max-width: 200px; text-align: center;"><span class="edgeLabel "></span></div></foreignObject></g></g><g class="edgeLabel"><g class="label" data-id="L_QC_STORE_0" transform="translate(0, 0)"><foreignObject width="0" height="0"><div xmlns="http://www.w3.org/1999/xhtml" class="labelBkg" style="display: table-cell; white-space: nowrap; line-height: 1.5; max-width: 200px; text-align: center;"><span class="edgeLabel "></span></div></foreignObject></g></g><g class="edgeLabel"><g class="label" data-id="L_PUB_STORE_0" transform="translate(0, 0)"><foreignObject width="0" height="0"><div xmlns="http://www.w3.org/1999/xhtml" class="labelBkg" style="display: table-cell; white-space: nowrap; line-height: 1.5; max-width: 200px; text-align: center;"><span class="edgeLabel "></span></div></foreignObject></g></g></g><g class="nodes"><g class="root" transform="translate(436.5078125, 0)"><g class="clusters"><g class="cluster " id="PUB" data-look="classic"><rect style="fill:#2a2a1a !important;stroke:#9ad97e !important" x="8" y="8" width="498.65625" height="184"/><g class="cluster-label " transform="translate(200.796875, 8)"><foreignObject width="113.0625" height="21"><div xmlns="http://www.w3.org/1999/xhtml" style="display: table-cell; white-space: nowrap; line-height: 1.5; max-width: 200px; text-align: center;"><span class="nodeLabel " style="color:#e4e7ee !important"><p>⑤ Render + publish</p></span></div></foreignObject></g></g></g><g class="edgePaths"><path d="M232.141,100L238.391,100C244.641,100,257.141,100,268.974,100C280.807,100,291.974,100,297.557,100L303.141,100" id="L_ASTRO_CF_0" class=" edge-thickness-normal edge-pattern-solid edge-thickness-normal edge-pattern-solid flowchart-link" style=";" data-edge="true" data-et="edge" data-id="L_ASTRO_CF_0" data-points="W3sieCI6MjMyLjE0MDYyNSwieSI6MTAwfSx7IngiOjI2OS42NDA2MjUsInkiOjEwMH0seyJ4IjozMDcuMTQwNjI1LCJ5IjoxMDB9XQ==" marker-end="url(#mermaid-svg_flowchart-v2-pointEnd)"/></g><g class="edgeLabels"><g class="edgeLabel"><g class="label" data-id="L_ASTRO_CF_0" transform="translate(0, 0)"><foreignObject width="0" height="0"><div xmlns="http://www.w3.org/1999/xhtml" class="labelBkg" style="display: table-cell; white-space: nowrap; line-height: 1.5; max-width: 200px; text-align: center;"><span class="edgeLabel "></span></div></foreignObject></g></g></g><g class="nodes"><g class="node default  " id="flowchart-ASTRO-15" transform="translate(138.8203125, 100)"><rect class="basic label-container" style="" x="-93.3203125" y="-57" width="186.640625" height="114"/><g class="label" style="" transform="translate(-63.3203125, -42)"><rect/><foreignObject width="126.640625" height="84"><div xmlns="http://www.w3.org/1999/xhtml" style="display: table-cell; white-space: nowrap; line-height: 1.5; max-width: 200px; text-align: center;"><span class="nodeLabel "><p>HTML build<br /><b>Astro 5</b><br /><i>schema.org JSON-LD,</i><br /><i>OG tags, sitemap</i></p></span></div></foreignObject></g></g><g class="node default  " id="flowchart-CF-16" transform="translate(388.1484375, 100)"><rect class="basic label-container" style="" x="-81.0078125" y="-57" width="162.015625" height="114"/><g class="label" style="" transform="translate(-51.0078125, -42)"><rect/><foreignObject width="102.015625" height="84"><div xmlns="http://www.w3.org/1999/xhtml" style="display: table-cell; white-space: nowrap; line-height: 1.5; max-width: 200px; text-align: center;"><span class="nodeLabel "><p>Deploy<br /><b>Cloudflare Pages</b><br /><i>atomic rollout</i><br /><i>~10 s to CDN</i></p></span></div></foreignObject></g></g></g></g><g class="root" transform="translate(362.8912773132324, 1474.0189514160156)"><g class="clusters"><g class="cluster " id="QC" data-look="classic"><rect style="fill:#332323 !important;stroke:#ff8b3d !important" x="8" y="8" width="506.53125" height="205"/><g class="cluster-label " transform="translate(210.4375, 8)"><foreignObject width="101.65625" height="21"><div xmlns="http://www.w3.org/1999/xhtml" style="display: table-cell; white-space: nowrap; line-height: 1.5; max-width: 200px; text-align: center;"><span class="nodeLabel " style="color:#e4e7ee !important"><p>④ Quality control</p></span></div></foreignObject></g></g></g><g class="edgePaths"><path d="M218.141,110.5L224.391,110.5C230.641,110.5,243.141,110.5,254.974,110.5C266.807,110.5,277.974,110.5,283.557,110.5L289.141,110.5" id="L_RULES_JUDGE_0" class=" edge-thickness-normal edge-pattern-solid edge-thickness-normal edge-pattern-solid flowchart-link" style=";" data-edge="true" data-et="edge" data-id="L_RULES_JUDGE_0" data-points="W3sieCI6MjE4LjE0MDYyNSwieSI6MTEwLjV9LHsieCI6MjU1LjY0MDYyNSwieSI6MTEwLjV9LHsieCI6MjkzLjE0MDYyNSwieSI6MTEwLjV9XQ==" marker-end="url(#mermaid-svg_flowchart-v2-pointEnd)"/></g><g class="edgeLabels"><g class="edgeLabel"><g class="label" data-id="L_RULES_JUDGE_0" transform="translate(0, 0)"><foreignObject width="0" height="0"><div xmlns="http://www.w3.org/1999/xhtml" class="labelBkg" style="display: table-cell; white-space: nowrap; line-height: 1.5; max-width: 200px; text-align: center;"><span class="edgeLabel "></span></div></foreignObject></g></g></g><g class="nodes"><g class="node default  " id="flowchart-RULES-11" transform="translate(131.8203125, 110.5)"><rect class="basic label-container" style="" x="-86.3203125" y="-67.5" width="172.640625" height="135"/><g class="label" style="" transform="translate(-56.3203125, -52.5)"><rect/><foreignObject width="112.640625" height="105"><div xmlns="http://www.w3.org/1999/xhtml" style="display: table-cell; white-space: nowrap; line-height: 1.5; max-width: 200px; text-align: center;"><span class="nodeLabel "><p>Programmatic rules<br /><i>density, length,</i><br /><i>schema.org validity,</i><br /><i>KSA: 18+, Cruks,</i><br /><i>celebrity bans</i></p></span></div></foreignObject></g></g><g class="node default  " id="flowchart-JUDGE-12" transform="translate(385.0859375, 110.5)"><rect class="basic label-container" style="" x="-91.9453125" y="-67.5" width="183.890625" height="135"/><g class="label" style="" transform="translate(-61.9453125, -52.5)"><rect/><foreignObject width="123.890625" height="105"><div xmlns="http://www.w3.org/1999/xhtml" style="display: table-cell; white-space: nowrap; line-height: 1.5; max-width: 200px; text-align: center;"><span class="nodeLabel "><p>LLM judge<br /><b>Sonnet 4.6</b><br /><i>tone, factuality,</i><br /><i>blandness, divergence</i><br /><i>from competitors</i></p></span></div></foreignObject></g></g></g></g><g class="root" transform="translate(413.3873710632324, 983.0189514160156)"><g class="clusters"><g class="cluster " id="GEN" data-look="classic"><rect style="fill:#2a1a2a !important;stroke:#b06bff !important" x="8" y="8" width="264.546875" height="399"/><g class="cluster-label " transform="translate(60.6328125, 8)"><foreignObject width="159.28125" height="21"><div xmlns="http://www.w3.org/1999/xhtml" style="display: table-cell; white-space: nowrap; line-height: 1.5; max-width: 200px; text-align: center;"><span class="nodeLabel " style="color:#e4e7ee !important"><p>③ AI generation (per-block)</p></span></div></foreignObject></g></g></g><g class="edgePaths"><path d="M140.273,159.5L140.273,165.75C140.273,172,140.273,184.5,140.273,196.333C140.273,208.167,140.273,219.333,140.273,224.917L140.273,230.5" id="L_BRIEF_BLOCKS_0" class=" edge-thickness-normal edge-pattern-solid edge-thickness-normal edge-pattern-solid flowchart-link" style=";" data-edge="true" data-et="edge" data-id="L_BRIEF_BLOCKS_0" data-points="W3sieCI6MTQwLjI3MzQzNzUsInkiOjE1OS41fSx7IngiOjE0MC4yNzM0Mzc1LCJ5IjoxOTd9LHsieCI6MTQwLjI3MzQzNzUsInkiOjIzNC41fV0=" marker-end="url(#mermaid-svg_flowchart-v2-pointEnd)"/></g><g class="edgeLabels"><g class="edgeLabel"><g class="label" data-id="L_BRIEF_BLOCKS_0" transform="translate(0, 0)"><foreignObject width="0" height="0"><div xmlns="http://www.w3.org/1999/xhtml" class="labelBkg" style="display: table-cell; white-space: nowrap; line-height: 1.5; max-width: 200px; text-align: center;"><span class="edgeLabel "></span></div></foreignObject></g></g></g><g class="nodes"><g class="node default  " id="flowchart-BRIEF-7" transform="translate(140.2734375, 102.5)"><rect class="basic label-container" style="" x="-89.7578125" y="-57" width="179.515625" height="114"/><g class="label" style="" transform="translate(-59.7578125, -42)"><rect/><foreignObject width="119.515625" height="84"><div xmlns="http://www.w3.org/1999/xhtml" style="display: table-cell; white-space: nowrap; line-height: 1.5; max-width: 200px; text-align: center;"><span class="nodeLabel "><p>Page brief<br /><b>Claude Opus 4.7</b><br /><i>H1, H2 outline, FAQ,</i><br /><i>required entities</i></p></span></div></foreignObject></g></g><g class="node default  " id="flowchart-BLOCKS-8" transform="translate(140.2734375, 302)"><rect class="basic label-container" style="" x="-97.2734375" y="-67.5" width="194.546875" height="135"/><g class="label" style="" transform="translate(-67.2734375, -52.5)"><rect/><foreignObject width="134.546875" height="105"><div xmlns="http://www.w3.org/1999/xhtml" style="display: table-cell; white-space: nowrap; line-height: 1.5; max-width: 200px; text-align: center;"><span class="nodeLabel "><p>Body — block by block<br /><b>Sonnet 4.6 / Haiku 4.5</b><br /><i>via OpenRouter</i><br /><i>per-block for selective</i><br /><i>regeneration</i></p></span></div></foreignObject></g></g></g></g><g class="root" transform="translate(0, 707.0189514160156)"><g class="clusters"><g class="cluster " id="GATHER" data-look="classic"><rect style="fill:#1f2a2a !important;stroke:#4dd2c7 !important" x="8" y="8" width="520.09375" height="184"/><g class="cluster-label " transform="translate(215.6640625, 8)"><foreignObject width="104.765625" height="21"><div xmlns="http://www.w3.org/1999/xhtml" style="display: table-cell; white-space: nowrap; line-height: 1.5; max-width: 200px; text-align: center;"><span class="nodeLabel " style="color:#e4e7ee !important"><p>② Input collection</p></span></div></foreignObject></g></g></g><g class="edgePaths"><path d="M220.125,100L226.375,100C232.625,100,245.125,100,256.958,100C268.792,100,279.958,100,285.542,100L291.125,100" id="L_SERP_SCR_0" class=" edge-thickness-normal edge-pattern-solid edge-thickness-normal edge-pattern-solid flowchart-link" style=";" data-edge="true" data-et="edge" data-id="L_SERP_SCR_0" data-points="W3sieCI6MjIwLjEyNSwieSI6MTAwfSx7IngiOjI1Ny42MjUsInkiOjEwMH0seyJ4IjoyOTUuMTI1LCJ5IjoxMDB9XQ==" marker-end="url(#mermaid-svg_flowchart-v2-pointEnd)"/></g><g class="edgeLabels"><g class="edgeLabel"><g class="label" data-id="L_SERP_SCR_0" transform="translate(0, 0)"><foreignObject width="0" height="0"><div xmlns="http://www.w3.org/1999/xhtml" class="labelBkg" style="display: table-cell; white-space: nowrap; line-height: 1.5; max-width: 200px; text-align: center;"><span class="edgeLabel "></span></div></foreignObject></g></g></g><g class="nodes"><g class="node default  " id="flowchart-SERP-3" transform="translate(132.8125, 100)"><rect class="basic label-container" style="" x="-87.3125" y="-46.5" width="174.625" height="93"/><g class="label" style="" transform="translate(-57.3125, -31.5)"><rect/><foreignObject width="114.625" height="63"><div xmlns="http://www.w3.org/1999/xhtml" style="display: table-cell; white-space: nowrap; line-height: 1.5; max-width: 200px; text-align: center;"><span class="nodeLabel "><p>SERP top-10 + PAA<br /><b>DataForSEO</b><br /><i>$0.60 / 1k requests</i></p></span></div></foreignObject></g></g><g class="node default  " id="flowchart-SCR-4" transform="translate(392.859375, 100)"><rect class="basic label-container" style="" x="-97.734375" y="-57" width="195.46875" height="114"/><g class="label" style="" transform="translate(-67.734375, -42)"><rect/><foreignObject width="135.46875" height="84"><div xmlns="http://www.w3.org/1999/xhtml" style="display: table-cell; white-space: nowrap; line-height: 1.5; max-width: 200px; text-align: center;"><span class="nodeLabel "><p>Competitor scrape<br /><b>Playwright Chromium</b><br /><i>+ Bright Data fallback</i><br /><i>for bot-protected sites</i></p></span></div></foreignObject></g></g></g></g><g class="node default  " id="flowchart-S1-0" transform="translate(163.88671875, 467)"><rect class="basic label-container" style="" x="-80.9453125" y="-36" width="161.890625" height="72"/><g class="label" style="" transform="translate(-50.9453125, -21)"><rect/><foreignObject width="101.890625" height="42"><div xmlns="http://www.w3.org/1999/xhtml" style="display: table-cell; white-space: nowrap; line-height: 1.5; max-width: 200px; text-align: center;"><span class="nodeLabel "><p>Google Sheets<br /><i>polling, writeback</i></p></span></div></foreignObject></g></g><g class="node default  " id="flowchart-S2-1" transform="translate(372.20703125, 467)"><rect class="basic label-container" style="" x="-77.375" y="-36" width="154.75" height="72"/><g class="label" style="" transform="translate(-47.375, -21)"><rect/><foreignObject width="94.75" height="42"><div xmlns="http://www.w3.org/1999/xhtml" style="display: table-cell; white-space: nowrap; line-height: 1.5; max-width: 200px; text-align: center;"><span class="nodeLabel "><p>Web UI<br /><i>React dashboard</i></p></span></div></foreignObject></g></g><g class="node default  " id="flowchart-Q-2" transform="translate(268.046875, 621.5094757080078)"><path d="M0,10.008620043475002 a41.7265625,10.008620043475002 0,0,0 83.453125,0 a41.7265625,10.008620043475002 0,0,0 -83.453125,0 l0,67.008620043475 a41.7265625,10.008620043475002 0,0,0 83.453125,0 l0,-67.008620043475" class="basic label-container" style="" label-offset-y="10.008620043475002" transform="translate(-41.7265625, -43.5129300652125)"/><g class="label" style="" transform="translate(-34.2265625, -11)"><rect/><foreignObject width="68.453125" height="42"><div xmlns="http://www.w3.org/1999/xhtml" style="display: table-cell; white-space: nowrap; line-height: 1.5; max-width: 200px; text-align: center;"><span class="nodeLabel "><p>Task queue<br />PostgreSQL</p></span></div></foreignObject></g></g><g class="node default  " id="flowchart-STATUS-19" transform="translate(163.88671875, 288.5)"><rect class="basic label-container" style="" x="-122.53125" y="-46.5" width="245.0625" height="93"/><g class="label" style="" transform="translate(-92.53125, -31.5)"><rect/><foreignObject width="185.0625" height="63"><div xmlns="http://www.w3.org/1999/xhtml" style="display: table-cell; white-space: nowrap; line-height: 1.5; max-width: 200px; text-align: center;"><span class="nodeLabel "><p>⑥ Status writeback<br />published / failed / under_review<br /><i>published URL</i></p></span></div></foreignObject></g></g><g class="node default  " id="flowchart-STORE-20" transform="translate(553.6608085632324, 1838.9525985717773)"><path d="M0,13.955767850240212 a78.9765625,13.955767850240212 0,0,0 157.953125,0 a78.9765625,13.955767850240212 0,0,0 -157.953125,0 l0,175.95576785024022 a78.9765625,13.955767850240212 0,0,0 157.953125,0 l0,-175.95576785024022" class="basic label-container" style="fill:#0f1922 !important;stroke:#8b93a5 !important" label-offset-y="13.955767850240212" transform="translate(-78.9765625, -101.93365177536032)"/><g class="label" style="color:#a4adbf !important" transform="translate(-71.4765625, -63.5)"><rect/><foreignObject width="142.953125" height="147"><div style="color: rgb(164, 173, 191) !important; display: table-cell; white-space: nowrap; line-height: 1.5; max-width: 200px; text-align: center;" xmlns="http://www.w3.org/1999/xhtml"><span style="color:#a4adbf !important" class="nodeLabel "><p>Shared storage<br />PostgreSQL — metadata,<br />blocks, versions, log<br /><br />Cloudflare R2 — raw<br />competitor HTML,<br />built HTML files</p></span></div></foreignObject></g></g><g class="node default  " id="flowchart-EDITOR-21" transform="translate(693.8359375, 807.0189514160156)"><g class="basic label-container"><path d="M-69.15755208333333 -49.5 C-50.61327273262293 -49.5, -32.068993381912534 -49.5, 0 -49.5 C16.72349956692446 -49.5, 33.44699913384892 -49.5, 69.15755208333333 -49.5 C74.33026338187405 -39.15457740291856, 79.50297468041477 -28.80915480583712, 93.90755208333333 0 C86.96981509890863 13.875473968849409, 80.03207811448392 27.750947937698818, 69.15755208333333 49.5 C53.83274473492058 49.5, 38.50793738650783 49.5, 0 49.5 C-21.33935252382898 49.5, -42.67870504765796 49.5, -69.15755208333333 49.5 C-76.29310463315699 35.22889490035267, -83.42865718298066 20.957789800705342, -93.90755208333333 0 C-85.61695499177344 -16.581194183119777, -77.32635790021355 -33.162388366239554, -69.15755208333333 -49.5" stroke="none" stroke-width="0" fill="#221a33" style="fill:#221a33 !important;stroke:#ffb84e !important"/><path d="M-69.15755208333333 -49.5 C-45.71448323445911 -49.5, -22.271414385584897 -49.5, 0 -49.5 M-69.15755208333333 -49.5 C-47.22988165867571 -49.5, -25.30221123401808 -49.5, 0 -49.5 M0 -49.5 C20.501039169052174 -49.5, 41.00207833810435 -49.5, 69.15755208333333 -49.5 M0 -49.5 C26.532759099208224 -49.5, 53.06551819841645 -49.5, 69.15755208333333 -49.5 M69.15755208333333 -49.5 C75.4672397672638 -36.880624632139046, 81.77692745119428 -24.2612492642781, 93.90755208333333 0 M69.15755208333333 -49.5 C77.51775620960153 -32.779591747463584, 85.87796033586974 -16.059183494927176, 93.90755208333333 0 M93.90755208333333 0 C87.36254492970639 13.090014307253876, 80.81753777607945 26.18002861450775, 69.15755208333333 49.5 M93.90755208333333 0 C88.11880611765828 11.577491931350096, 82.33006015198323 23.154983862700192, 69.15755208333333 49.5 M69.15755208333333 49.5 C41.9904070148923 49.5, 14.823261946451261 49.5, 0 49.5 M69.15755208333333 49.5 C52.1549267870883 49.5, 35.15230149084328 49.5, 0 49.5 M0 49.5 C-19.161895352022782 49.5, -38.323790704045564 49.5, -69.15755208333333 49.5 M0 49.5 C-19.98442011723851 49.5, -39.96884023447702 49.5, -69.15755208333333 49.5 M-69.15755208333333 49.5 C-78.57953324602381 30.656037674619036, -88.00151440871429 11.812075349238071, -93.90755208333333 0 M-69.15755208333333 49.5 C-77.45435358922482 32.90639698821701, -85.75115509511632 16.312793976434016, -93.90755208333333 0 M-93.90755208333333 0 C-85.22950485902234 -17.356094448621967, -76.55145763471137 -34.712188897243934, -69.15755208333333 -49.5 M-93.90755208333333 0 C-88.5774359970571 -10.660232172552464, -83.24731991078086 -21.320464345104927, -69.15755208333333 -49.5" stroke="#ffb84e" stroke-width="1.3" fill="none" stroke-dasharray="0 0" style="fill:#221a33 !important;stroke:#ffb84e !important"/></g><g class="label" style="color:#e4e7ee !important" transform="translate(-61.7421875, -42)"><rect/><foreignObject width="123.484375" height="84"><div style="color: rgb(228, 231, 238) !important; display: table-cell; white-space: nowrap; line-height: 1.5; max-width: 200px; text-align: center;" xmlns="http://www.w3.org/1999/xhtml"><span style="color:#e4e7ee !important" class="nodeLabel "><p>Editor / auto-monitor<br /><i>selective regeneration</i><br /><i>or surgical edit of</i><br /><i>highlighted text</i></p></span></div></foreignObject></g></g></g></g></g><text text-anchor="middle" x="475.58203125" y="-25" class="flowchartTitleText">Task 1 — Automated SEO site generation</text></svg>